<?xml version="1.0" standalone="no"?>
<!DOCTYPE svg PUBLIC "-//W3C//DTD SVG 20010904//EN"
 "http://www.w3.org/TR/2001/REC-SVG-20010904/DTD/svg10.dtd">
<svg version="1.0" xmlns="http://www.w3.org/2000/svg"
 width="200.000000pt" height="200.000000pt" viewBox="0 0 200.000000 200.000000"
 preserveAspectRatio="xMidYMid meet">
<metadata>
Created by potrace 1.11, written by Peter Selinger 2001-2013
</metadata>
<g transform="translate(0.000000,200.000000) scale(0.100000,-0.100000)"
fill="#000000" stroke="none">
<path d="M0 1000 l0 -1000 1003 2 c551 2 919 4 818 5 -163 3 -182 5 -165 18
10 8 29 15 40 15 41 0 63 31 74 102 6 41 7 76 1 90 -9 23 -14 68 -12 96 1 7
16 12 40 12 22 0 43 5 46 10 3 6 16 10 29 10 12 0 27 5 34 12 9 9 18 9 37 0
58 -27 55 -50 53 416 l-3 427 -74 3 c-53 2 -78 7 -86 18 -14 20 -71 15 -67 -5
3 -12 -35 -13 -241 -7 l-244 7 -7 -23 c-3 -13 -6 -41 -6 -63 0 -22 -3 -65 -7
-95 -5 -40 -8 -49 -13 -31 -5 23 -6 23 -23 7 -14 -14 -17 -15 -17 -3 0 15 -29
27 -67 27 -17 0 -23 6 -23 21 0 11 -4 17 -10 14 -5 -3 -10 -1 -10 5 0 6 -4 9
-9 6 -5 -3 -11 4 -14 17 -7 32 16 349 27 366 8 12 77 13 453 7 l443 -6 0 260
0 260 -1000 0 -1000 0 0 -1000z m841 759 c30 -30 68 -117 75 -172 l7 -47 -41
0 c-32 0 -41 4 -40 18 1 9 -6 43 -14 74 -9 33 -12 58 -7 60 6 2 3 22 -5 46
-17 46 -8 54 25 21z m9 -360 c0 -4 -5 -11 -10 -14 -20 -12 1 -24 31 -18 29 5
29 5 19 -23 -6 -15 -9 -38 -5 -51 4 -16 -4 -36 -25 -64 -19 -27 -30 -36 -30
-25 0 10 -8 30 -19 44 -26 38 -35 142 -14 157 17 13 53 9 53 -6z m105 -14 l18
-30 -21 19 c-12 11 -22 26 -22 34 0 17 -1 18 25 -23z m29 -51 c3 -8 2 -12 -4
-9 -6 3 -10 10 -10 16 0 14 7 11 14 -7z m-688 -112 c16 -11 25 -42 12 -42 -22
0 15 -26 61 -44 108 -42 251 -142 251 -176 0 -10 7 -23 16 -31 19 -16 12 -47
-23 -100 l-26 -39 -41 47 c-22 25 -51 62 -63 82 -43 72 -127 117 -239 127 -64
6 -74 9 -68 23 3 9 11 34 17 56 11 44 25 67 37 60 4 -3 15 6 24 20 17 26 24
29 42 17z m588 -80 c-3 -9 -9 -27 -11 -39 -3 -13 -9 -23 -13 -23 -9 0 -23 39
-21 60 4 36 10 41 32 30 14 -8 18 -17 13 -28z m812 -788 c27 -28 31 -52 10
-60 -21 -8 -65 27 -66 52 0 41 23 45 56 8z"/>
<path d="M1950 340 c-8 -5 -12 -10 -10 -12 3 -2 17 -14 33 -27 l27 -24 0 36
c0 39 -17 48 -50 27z"/>
<path d="M1967 183 c-27 -14 -29 -18 -22 -62 8 -53 15 -64 38 -55 13 5 17 20
17 70 0 35 -1 64 -2 63 -2 -1 -16 -8 -31 -16z"/>
<path d="M1760 30 c0 -5 5 -10 10 -10 6 0 10 5 10 10 0 6 -4 10 -10 10 -5 0
-10 -4 -10 -10z"/>
</g>
</svg>
